<svg xmlns="http://www.w3.org/2000/svg">

  <!-- иконка стрелки меню на десктопе -->
  <symbol id="icon-arrow-down" viewBox="0 0 9 5" fill="none">
    <path d="M1.00021 1L4.36974 4L7.73926 1" stroke="currentColor" stroke-width="2" stroke-linecap="round"
      stroke-linejoin="round" />
  </symbol>
  <!-- иконка поиск  -->
  <symbol id="icon-search" viewBox="0 0 23 23" fill="none">
    <path
      d="M9.44131 4.06233C10.5944 4.06058 11.7257 4.37653 12.7111 4.97551C13.6964 5.57449 14.4977 6.43335 15.0269 7.45781C15.5562 8.48227 15.793 9.63275 15.7114 10.783C15.6298 11.9332 15.2329 13.0387 14.5642 13.9781L13.9435 14.8503L13.0713 15.471C12.2649 16.0425 11.3349 16.4156 10.3571 16.5601C9.37931 16.7046 8.3812 16.6163 7.44393 16.3024C6.50665 15.9886 5.65665 15.458 4.96301 14.7538C4.26937 14.0497 3.75166 13.1918 3.45197 12.2499C3.15227 11.308 3.07904 10.3086 3.23823 9.33311C3.39742 8.35759 3.78454 7.43338 4.36812 6.63562C4.9517 5.83785 5.71528 5.18904 6.59679 4.74191C7.4783 4.29477 8.45288 4.06194 9.44131 4.06233ZM9.44131 0.919442C7.95698 0.917449 6.49315 1.26593 5.16893 1.93653C3.84472 2.60713 2.69754 3.5809 1.82075 4.77859C0.943954 5.97629 0.36232 7.36407 0.123176 8.82901C-0.115968 10.294 -0.00586522 11.7947 0.444525 13.209C0.894915 14.6234 1.67287 15.9114 2.71507 16.9683C3.75728 18.0252 5.0343 18.8211 6.4422 19.2913C7.85011 19.7614 9.34913 19.8925 10.8173 19.6739C12.2854 19.4553 13.6812 18.8932 14.8911 18.0332L19.3186 22.4616C19.9299 23.0721 20.9215 23.0721 21.532 22.4616L21.5548 22.4388C21.71 22.2992 21.8341 22.1286 21.9191 21.9379C22.0041 21.7472 22.048 21.5408 22.048 21.3321C22.048 21.1233 22.0041 20.9169 21.9191 20.7263C21.8341 20.5356 21.71 20.3649 21.5548 20.2254L17.1264 15.7979C18.129 14.3882 18.724 12.7297 18.8463 11.0042C18.9685 9.27869 18.6132 7.55286 17.8193 6.01596C17.0255 4.47905 15.8237 3.19044 14.3459 2.29143C12.868 1.39242 11.1711 0.91774 9.44131 0.919442Z"
      fill="currentColor" />
  </symbol>

  <!-- иконка play  -->
  <symbol id="icon-play" viewBox="0 0 18 20" fill="none">
    <path
      d="M17 8.2678C18.3333 9.0376 18.3333 10.9621 17 11.7319L3.5 19.5261C2.16667 20.2959 0.5 19.3337 0.5 17.7941L0.500001 2.20562C0.500001 0.66602 2.16667 -0.296231 3.5 0.47357L17 8.2678Z"
      fill="currentColor" />
  </symbol>


  <!-- Логотип Квакеров  -->
  <symbol id="logotype" viewBox="0 0 167 42" fill="none">
    <mask id="mask0_3452_968" style="mask-type:luminance" maskUnits="userSpaceOnUse" x="0" y="0" width="167"
      height="42">
      <path d="M0 0.0805664H167V41.3797H0V0.0805664Z" fill="currentColor" />
    </mask>
    <g mask="url(#mask0_3452_968)">
      <path
        d="M57.3466 33.024L154.226 28.1284L154.41 27.1715C126.804 28.1651 127.945 28.1284 59.8132 30.1165C59.1363 30.2558 58.5255 30.6178 58.0784 31.1448C57.6313 31.6718 57.3737 32.3334 57.3466 33.024ZM166.079 16.8651C164.576 17.9916 162.988 19.0007 161.33 19.8836C159.121 21.061 156.287 21.2822 156.987 19.7367C157.318 19.0002 159.453 15.5775 159.453 15.5775L155.993 15.9449L154.447 18.4115C154.447 18.4115 151.282 18.9634 150.288 18.485L151.797 15.9458H148.852L148.778 16.0568V15.9833C146.957 17.2328 145.064 18.3758 143.11 19.4068C139.76 21.0994 138.215 21.5411 137.736 19.8477C137.478 18.8908 137.957 17.5657 137.957 17.5657L135.638 17.9706C135.638 17.9706 132.583 22.3143 130.19 21.9828C126.73 21.4676 130.522 15.6518 134.901 16.572L135.933 15.5784C135.153 15.2992 134.33 15.162 133.503 15.1734C132.405 15.1915 131.322 15.4287 130.317 15.871C129.312 16.3134 128.405 16.952 127.65 17.7494L124.228 19.5162C112.448 25.4055 110.976 19.6273 113.405 17.6391C114.28 16.969 115.332 16.57 116.431 16.4915C117.53 16.4129 118.628 16.6584 119.589 17.1974L120.473 16.167C119.57 15.6236 118.57 15.2609 117.528 15.0991C116.237 14.9056 114.919 15.0108 113.674 15.4065C112.43 15.8023 111.293 16.4781 110.351 17.382C109.78 17.921 109.371 18.6096 109.173 19.3693C107.811 20.1057 105.602 21.0994 104.387 20.9892C102.915 20.8414 102.695 19.0378 101.848 17.2342C101.111 15.6518 97.8725 15.0632 93.639 18.8173C93.6313 18.0782 93.4282 17.3543 93.0504 16.719C92.425 15.8355 88.9647 18.2654 86.1675 19.8844C85.3485 20.3007 84.4647 20.5746 83.5539 20.6944C81.3086 20.8046 82.4492 17.1974 82.4492 17.1974L80.0945 17.6759C80.0945 17.6759 75.6774 23.2345 73.321 22.3143C71.2226 21.4309 72.7691 16.572 78.1055 16.6822L79.2102 15.5784C78.1164 15.378 76.9992 15.3529 75.8978 15.504C73.6909 15.8544 71.6742 16.9603 70.1923 18.6328C70.0453 18.7063 69.9351 18.7438 69.8249 18.8541C65.4812 21.0994 56.7571 24.0812 51.53 22.498C45.3836 20.6209 46.9291 12.1916 55.9471 11.1612C58.6709 10.8297 61.469 11.9336 63.3828 13.627L65.2232 12.5231C65.2232 12.5231 60.5121 7.92224 52.5245 9.50457C42.7333 11.4551 39.273 21.9093 46.7454 24.927C53.2601 27.5773 63.3093 23.8231 69.0149 21.0626C67.9837 25.332 72.8425 25.8839 77.2597 22.6825C78.6216 21.7248 79.1735 21.1361 79.3948 20.8414C79.247 21.6513 79.2111 23.3814 81.7136 23.4182C83.3702 23.4182 85.431 21.9461 87.4191 20.6209C88.1373 20.1272 88.8737 19.6607 89.6269 19.2223C90.6948 18.6328 90.8785 18.8541 90.9896 19.2223C91.357 20.2159 89.8849 23.6019 89.8849 23.6019L91.357 23.7497C91.357 23.7497 97.4308 16.425 98.9029 19.1112C100.486 22.0563 100.854 22.9021 102.695 23.0867C104.719 23.2704 107.479 21.8358 109.136 20.8046C109.504 22.7919 111.786 24.4118 115.357 23.9701C119.146 23.3744 122.791 22.0763 126.105 20.1425C124.963 23.4182 128.607 25.4055 132.619 22.7184C135.196 20.9892 135.196 20.474 135.196 20.474C135.196 20.474 135.012 23.8975 138.398 23.0132C141.654 21.969 144.697 20.3484 147.38 18.2286L144.288 22.903L147.858 22.498L149.036 20.5107C150.532 20.2492 152.046 20.1013 153.564 20.0681C153.195 22.645 155.404 23.3814 158.791 22.2767C161.956 21.2463 166.999 17.6024 166.999 17.6024L166.079 16.8651Z"
        fill="currentColor" />
      <path
        d="M29.814 14.8765L5.52051 24.8898C5.52886 25.268 5.60401 25.6413 5.74178 25.9945C6.13751 26.8154 6.68747 27.5524 7.36168 28.1655C13.9866 25.258 23.8513 20.9144 26.2076 19.7737C29.8883 18.0069 29.8148 14.8781 29.8148 14.8781L29.814 14.8765ZM17.6681 28.7917C17.8351 28.4185 18.0873 28.0903 18.4046 27.8348L10.675 30.7423C12.5888 32.0307 14.7239 33.3926 16.5642 34.9014L17.5579 35.8216L17.4844 35.6746C16.8244 34.6401 16.4893 33.4317 16.522 32.2051C16.5547 30.9784 16.9539 29.7896 17.6681 28.7917ZM25.1772 21.4295L7.54538 28.3125C8.47497 29.1377 9.45855 29.9001 10.4896 30.5945L20.2808 26.2508L21.6059 25.4041C25.8394 22.7539 25.1772 21.4295 25.1772 21.4295Z"
        fill="#D3AE5D" />
      <path
        d="M21.8629 41.3797C22.8198 37.1095 18.4026 31.5517 17.7405 30.4103C17.6007 30.1873 17.5126 29.936 17.4824 29.6746C16.9313 31.515 16.5255 34.3857 18.1087 36.3363C19.5447 37.863 20.7928 39.5561 21.8261 41.3797H21.8629ZM37.1751 0.0805664C36.8077 0.190786 16.4521 9.57702 13.1396 11.6378C11.6299 12.5588 11.2993 14.8776 10.9678 17.0127L33.8626 6.1911C38.0218 3.61345 37.1751 0.0805664 37.1751 0.0805664Z"
        fill="#D3AE5D" />
      <path
        d="M5.00498 24.3738C5.1636 23.3257 5.71645 22.3777 6.55056 21.7235C5.93892 22.5618 5.58125 23.5583 5.52017 24.5942L28.9302 14.0306C34.2308 11.5641 33.7891 7.51514 33.7891 7.51514L10.8575 17.5652C10.7728 18.0856 10.6622 18.6014 10.526 19.1108C9.86301 21.4663 7.72875 20.7674 5.00498 20.1787L4.56243 20.0677H4.45221C1.58148 19.5158 1.13976 21.6141 1.13976 21.6141L1.02954 21.6876C0.860037 21.8254 0.712242 21.9865 0.586992 22.166C0.173034 22.7709 -0.0335303 23.4937 -0.00168283 24.226C1.3602 22.5702 3.93701 23.8218 5.00498 24.4097V24.3738Z"
        fill="#D3AE5D" />
    </g>
  </symbol>



</svg>
